<svg id="Layer_1" data-name="Layer 1" xmlns="http://www.w3.org/2000/svg" viewBox="0 0 1103.53 542.52"><defs><style>.cls-1{fill:#8bb3fc;}.cls-2{fill:#5983d2;}.cls-3{fill:#3a67ba;}</style></defs><title>FFE.Logo</title><path class="cls-1" d="M800.82,75h237.6l-15.6,80.4H880l-15.75,80.81h121.2l-15.68,80.33H848.59L834.42,384.6H982L966.42,465H722.83Z"/><path class="cls-2" d="M644,75H881.62L866,155.41H723.23l-15.6,80.4H828.82l-15.6,80.39H692L662,465H566Z"/><path class="cls-3" d="M488.53,75H726.12l-15.6,80.4H567.72l-15.6,80.4h121.2l-15.6,80.39H536.53l-30,148.8h-96Z"/><rect class="cls-1" x="377.69" y="254.69" width="33.23" height="71.08" rx="16.61" ry="16.61" transform="translate(590.6 738.75) rotate(-149.99)"/><rect class="cls-1" x="412.72" y="304.77" width="33.23" height="71.08" rx="16.61" ry="16.61" transform="translate(630.93 849.72) rotate(-149.99)"/><rect class="cls-1" x="197.84" y="150.83" width="33.23" height="71.08" rx="16.61" ry="16.61" transform="translate(121.95 -82.27) rotate(30.01)"/><rect class="cls-1" x="136.95" y="145.51" width="33.23" height="71.08" rx="16.61" ry="16.61" transform="translate(111.13 -52.53) rotate(30.01)"/><path class="cls-1" d="M337.91,179.32,125,159a51.47,51.47,0,0,0-38,11.81L64.87,189.4a7.46,7.46,0,0,0,2.87,12.93l123.7,33.1,80,59Z"/><path class="cls-1" d="M337.94,179.26,125,158.94a51.46,51.46,0,0,0-38,11.81L64.9,189.34a7.47,7.47,0,0,0,2.87,12.93l123.71,33.1,80,59Z"/><path class="cls-1" d="M338.15,178.9l124,174.25A51.48,51.48,0,0,1,470.91,392l-5,28.47a7.46,7.46,0,0,1-12.63,4l-90.5-90.61L271.67,294Z"/><path class="cls-1" d="M337.94,179.26,462,353.51a51.48,51.48,0,0,1,8.75,38.81l-5,28.47a7.47,7.47,0,0,1-12.64,4l-90.5-90.61-91.06-39.8Z"/><path class="cls-1" d="M241.22,397.36l-34.79,32.09c-8.49,7.84-22,0-19.47-11.24L197.37,372a244.59,244.59,0,0,1,22.61-61l96.84-173a182.79,182.79,0,0,1,64.07-69h0c13.71-10.1,32.88,1,31,17.9h0a182.65,182.65,0,0,1-27.71,90L282.75,347.3A245,245,0,0,1,241.22,397.36Z"/><path class="cls-1" d="M402.24,67.93A19.26,19.26,0,0,1,411.87,87h0a182.65,182.65,0,0,1-27.71,90L282.75,347.3a245,245,0,0,1-41.53,50.06l-34.79,32.09a11.54,11.54,0,0,1-13.78,1.6"/><path class="cls-1" d="M230,366.41l-97.49-9.3a14.92,14.92,0,0,0-11.66,4l-14.91,14a3.93,3.93,0,0,0,1.68,6.65l94.62,32.58,0,.08Z"/><path class="cls-1" d="M229.83,366.33l56.79,79.8A14.93,14.93,0,0,1,289,458.22l-4.72,19.93a3.93,3.93,0,0,1-6.6,1.87l-75.5-65.68h0Z"/></svg>